<svg width="20" height="17" viewBox="0 0 20 17" fill="none" xmlns="http://www.w3.org/2000/svg">
<path d="M13.2727 16V14.3333C13.2727 13.4493 12.9279 12.6014 12.3142 11.9763C11.7004 11.3512 10.868 11 10 11H4.27273C3.40475 11 2.57232 11.3512 1.95856 11.9763C1.3448 12.6014 1 13.4493 1 14.3333V16M16.5455 5.16667V10.1667M19 7.66667H14.0909M10.4091 4.33333C10.4091 6.17428 8.94384 7.66667 7.13636 7.66667C5.32889 7.66667 3.86364 6.17428 3.86364 4.33333C3.86364 2.49238 5.32889 1 7.13636 1C8.94384 1 10.4091 2.49238 10.4091 4.33333Z" stroke="#373435" stroke-width="1.5" stroke-linecap="round" stroke-linejoin="round"/>
</svg>
