<svg width="17" height="18" viewBox="0 0 17 18" fill="none" xmlns="http://www.w3.org/2000/svg">
<path d="M9.94165 16.1864C9.79514 16.4339 9.58485 16.6393 9.33184 16.7821C9.07883 16.9248 8.79197 17 8.49999 17C8.208 17 7.92114 16.9248 7.66813 16.7821C7.41512 16.6393 7.20483 16.4339 7.05832 16.1864M13.5 5.89885C13.5 4.59959 12.9732 3.35355 12.0355 2.43484C11.0979 1.51613 9.82608 1 8.5 1C7.17392 1 5.90215 1.51613 4.96447 2.43484C4.02678 3.35355 3.5 4.59959 3.5 5.89885C3.5 11.6142 1 13.2471 1 13.2471H16C16 13.2471 13.5 11.6142 13.5 5.89885Z" stroke="#373435" stroke-width="1.5" stroke-linecap="round" stroke-linejoin="round"/>
</svg>
