<svg width="20" height="18" viewBox="0 0 20 18" fill="none" xmlns="http://www.w3.org/2000/svg">
<path d="M1.74992 0.75H18.2499C18.493 0.75 18.7262 0.846577 18.8981 1.01849C19.07 1.19039 19.1666 1.42355 19.1666 1.66667V16.3333C19.1666 16.5764 19.07 16.8096 18.8981 16.9815C18.7262 17.1534 18.493 17.25 18.2499 17.25H1.74992C1.5068 17.25 1.27365 17.1534 1.10174 16.9815C0.929829 16.8096 0.833252 16.5764 0.833252 16.3333V1.66667C0.833252 1.42355 0.929829 1.19039 1.10174 1.01849C1.27365 0.846577 1.5068 0.75 1.74992 0.75ZM2.66659 2.58333V15.4167H17.3333V2.58333H2.66659ZM5.41659 9.91667H7.24992V13.5833H5.41659V9.91667ZM9.08325 4.41667H10.9166V13.5833H9.08325V4.41667ZM12.7499 7.16667H14.5833V13.5833H12.7499V7.16667Z" fill="black"/>
</svg>
