<svg width="20" height="20" viewBox="0 0 20 20" fill="none" xmlns="http://www.w3.org/2000/svg">
<path d="M7.75409 9.54171C7.20708 9.54171 6.68247 9.32441 6.29568 8.93762C5.90888 8.55082 5.69159 8.02622 5.69159 7.47921C5.69159 6.9322 5.90888 6.40759 6.29568 6.0208C6.68247 5.63401 7.20708 5.41671 7.75409 5.41671C8.30109 5.41671 8.8257 5.63401 9.21249 6.0208C9.59929 6.40759 9.81659 6.9322 9.81659 7.47921C9.81659 8.02622 9.59929 8.55082 9.21249 8.93762C8.8257 9.32441 8.30109 9.54171 7.75409 9.54171ZM8.16659 17.1024V14.0334C8.16659 13.586 8.29859 13.1745 8.53692 12.8069C7.71986 12.6906 6.88754 12.7461 6.09314 12.9698C5.29874 13.1934 4.55973 13.5803 3.92334 14.1058C4.92532 15.5886 6.43421 16.6545 8.16659 17.1033V17.1024ZM3.08184 12.4384C4.42062 11.4476 6.04274 10.9141 7.70825 10.9167C8.66434 10.9167 9.581 11.089 10.428 11.4044C11.2328 11.09 12.1926 10.9167 13.2083 10.9167C14.7299 10.9167 16.1278 11.3054 17.0638 11.9764C17.3732 10.8671 17.417 9.70052 17.1916 8.57116C16.9663 7.44179 16.4781 6.38137 15.7667 5.47577C15.0552 4.57018 14.1405 3.84487 13.0966 3.35859C12.0527 2.87231 10.9089 2.63873 9.75788 2.67676C8.60687 2.71479 7.48101 3.02337 6.47146 3.5775C5.46191 4.13164 4.59706 4.91575 3.94695 5.86633C3.29684 6.81691 2.87975 7.90724 2.72945 9.04902C2.57915 10.1908 2.69987 11.3519 3.08184 12.4384ZM16.3057 13.7455C15.9454 13.257 14.74 12.75 13.2083 12.75C11.3694 12.75 9.99992 13.4806 9.99992 14.0334V17.3334C11.2721 17.3341 12.5226 17.0037 13.6284 16.3746C14.7341 15.7455 15.6571 14.8395 16.3066 13.7455H16.3057ZM9.99992 19.1667C4.93717 19.1667 0.833252 15.0628 0.833252 10C0.833252 4.93729 4.93717 0.833374 9.99992 0.833374C15.0627 0.833374 19.1666 4.93729 19.1666 10C19.1666 15.0628 15.0627 19.1667 9.99992 19.1667ZM13.2083 10.4584C12.722 10.4584 12.2557 10.2652 11.9119 9.9214C11.5681 9.57759 11.3749 9.11127 11.3749 8.62504C11.3749 8.13881 11.5681 7.6725 11.9119 7.32868C12.2557 6.98486 12.722 6.79171 13.2083 6.79171C13.6945 6.79171 14.1608 6.98486 14.5046 7.32868C14.8484 7.6725 15.0416 8.13881 15.0416 8.62504C15.0416 9.11127 14.8484 9.57759 14.5046 9.9214C14.1608 10.2652 13.6945 10.4584 13.2083 10.4584Z" fill="#00B533"/>
</svg>
